<?xml version="1.0" encoding="utf-8"?>
<!-- Generator: Adobe Illustrator 25.2.0, SVG Export Plug-In . SVG Version: 6.00 Build 0)  -->
<svg version="1.1" id="Layer_1" xmlns="http://www.w3.org/2000/svg" xmlns:xlink="http://www.w3.org/1999/xlink" x="0px" y="0px"
	 viewBox="0 0 32 32" style="enable-background:new 0 0 32 32;" xml:space="preserve">
<style type="text/css">
	.st0{fill:#999999;stroke:#000000;stroke-miterlimit:10;}
	.st1{fill:#FFFFFF;}
	.st2{fill:none;stroke:#000000;stroke-miterlimit:10;}
	.st3{fill:#020202;stroke:#000000;stroke-miterlimit:10;}
	.st4{fill:#FFFFFF;stroke:#000000;stroke-miterlimit:10;}
</style>
<path class="st0" d="M27.5,15.36c0-6.35-5.6-11.5-12.5-11.5S2.5,9.01,2.5,15.36c0,2.29,0.73,4.42,1.98,6.21
	c0.58,0.83,1.27,1.58,2.04,2.24c0.09,0.08,0.2,0.16,0.31,0.24c0.1,0.08,0.2,0.16,0.3,0.22c0.31,0.22,0.66,0.46,1.04,0.71
	c1.12,0.68,2.36,1.2,3.7,1.52h0.01c0.52,0.12,1.07,0.22,1.62,0.27v0.01c0.01,1.42,1.12,2.58,2.5,2.58s2.5-1.17,2.5-2.59v-0.91
	C24.69,25.18,27.5,21.24,27.5,15.36z M11,24.18c-0.28,0-0.5-0.24-0.5-0.52c0-0.29,0.22-0.53,0.5-0.53s0.5,0.24,0.5,0.53
	C11.5,23.94,11.28,24.18,11,24.18z"/>
<path class="st0" d="M8.17,24.62c-0.36-0.21-0.71-0.44-1.04-0.71C7.44,24.13,7.79,24.37,8.17,24.62z"/>
<path class="st0" d="M11.5,23.3c0,0.28-0.22,0.52-0.5,0.52s-0.5-0.24-0.5-0.52c0-0.29,0.22-0.53,0.5-0.53S11.5,23.01,11.5,23.3z"/>
<g>
	<circle class="st1" cx="9.5" cy="10.5" r="3"/>
	<path d="M9.5,8c1.38,0,2.5,1.12,2.5,2.5S10.88,13,9.5,13S7,11.88,7,10.5S8.12,8,9.5,8 M9.5,7C7.57,7,6,8.57,6,10.5S7.57,14,9.5,14
		s3.5-1.57,3.5-3.5S11.43,7,9.5,7L9.5,7z"/>
</g>
<g>
	<circle class="st1" cx="21.5" cy="10.5" r="3"/>
	<path d="M21.5,8c1.38,0,2.5,1.12,2.5,2.5S22.88,13,21.5,13S19,11.88,19,10.5S20.12,8,21.5,8 M21.5,7C19.57,7,18,8.57,18,10.5
		s1.57,3.5,3.5,3.5s3.5-1.57,3.5-3.5S23.43,7,21.5,7L21.5,7z"/>
</g>
<g>
	<ellipse class="st1" cx="9.5" cy="10.5" rx="0.5" ry="2.5"/>
	<path d="M9.5,8C9.22,8,9,9.12,9,10.5S9.22,13,9.5,13s0.5-1.12,0.5-2.5S9.78,8,9.5,8L9.5,8z"/>
</g>
<g>
	<ellipse class="st1" cx="21.5" cy="10.5" rx="0.5" ry="2.5"/>
	<path d="M21.5,8C21.22,8,21,9.12,21,10.5s0.22,2.5,0.5,2.5s0.5-1.12,0.5-2.5S21.78,8,21.5,8L21.5,8z"/>
</g>
<g>
	<path class="st1" d="M16,21.5c-0.11-0.03-0.5-0.55-0.5-1.86c0-0.18,0.01-0.36,0.02-0.53l0.03-0.49l-0.49-0.03
		c-1.37-0.09-2.16-0.35-2.45-0.52c0.39-0.23,1.57-0.54,3.4-0.54c1.91,0,3.1,0.34,3.44,0.57c-0.22,0.1-1.02,0.39-2.5,0.49l-0.49,0.03
		l0.03,0.49c0.01,0.17,0.02,0.35,0.02,0.53C16.5,20.95,16.11,21.47,16,21.5z"/>
	<path d="M16,18.02c0.41,0,0.79,0.02,1.13,0.05c-0.07,0.01-0.14,0.01-0.21,0.02L16,18.15l-0.91-0.06c-0.07,0-0.14-0.01-0.21-0.02
		C15.21,18.04,15.59,18.02,16,18.02 M16,17.02c-2.21,0-4,0.47-4,1.05c0,0.49,1.28,0.9,3.02,1.01C15.01,19.26,15,19.45,15,19.64
		c0,1.44,0.45,2.36,1,2.36s1-0.92,1-2.36c0-0.19-0.01-0.38-0.02-0.55c1.74-0.11,3.02-0.52,3.02-1.01C20,17.49,18.21,17.02,16,17.02
		L16,17.02z"/>
</g>
<path class="st2" d="M4.5,20.68c0,0-0.15,0.15-0.02,0.53c0.14,0.43,0.62,1.14,2.04,2.24"/>
<path class="st2" d="M8.17,24.62C8.43,24.8,8.7,24.98,9,25.16c1.08,0.68,2.05,0.96,2.87,0.98"/>
<path class="st2" d="M11.88,26.14c2.84,0.05,4.17-3,4.22-3.61v-0.01"/>
<path class="st2" d="M16,22.46c0.04-0.04,0.07-0.05,0.08-0.03"/>
<path class="st2" d="M10.95,19.68c0,0-6.45-4.18-8.45-3.14c-2,1.05-2,1.05-2,1.05"/>
<path class="st2" d="M20.9,19.64l4.6-3.14c0,0,2.78-0.34,3.89,0.88c1.11,1.21,1.18,0.67,1.18,0.67"/>
<path class="st2" d="M21.9,20.92c0,0,4.41-3.54,6.51-1.89c2.09,1.65,2.09,1.65,2.09,1.65l0,0"/>
<polyline class="st2" points="10.26,21.02 4.5,18.64 1.31,19.92 "/>
<ellipse class="st3" cx="12" cy="21.21" rx="0.5" ry="0.52"/>
<path class="st3" d="M11.5,23.3c0,0.28-0.22,0.52-0.5,0.52s-0.5-0.24-0.5-0.52c0-0.29,0.22-0.53,0.5-0.53S11.5,23.01,11.5,23.3z"/>
<rect x="19.5" y="20.68" transform="matrix(0.6913 -0.7226 0.7226 0.6913 -8.9252 20.4757)" class="st3" width="0" height="0"/>
<ellipse class="st3" cx="19" cy="20.16" rx="0.5" ry="0.52"/>
<ellipse class="st3" cx="20" cy="22.25" rx="0.5" ry="0.52"/>
<path class="st4" d="M3.5,7.5c0,0,1-4.17,0-5.58S9,4.71,9,4.71"/>
<rect x="0.5" y="0.5" class="st2" width="31" height="31"/>
<path class="st2" d="M8.5,4.5c0,0,9.5-2.63,13,1"/>
<path class="st2" d="M21.15,5.17L24.5,1.5c0,0,2,0,2,3s0,2.5,0,2.5"/>
<path class="st2" d="M33.5,6.5"/>
<path class="st2" d="M19,25.29c-1.93,0.61-2.67-1.68-2.9-2.76v-0.01"/>
<path class="st2" d="M16.08,22.43c-0.06-0.26,0.42,1.07,0.42,1.07"/>
</svg>
